<?xml version="1.0" encoding="utf-8"?>
<!-- Generator: Adobe Illustrator 24.3.0, SVG Export Plug-In . SVG Version: 6.00 Build 0)  -->
<svg version="1.1" id="a5689fc5-8d5e-4b19-817c-171f8cabf65a"
	 xmlns="http://www.w3.org/2000/svg" xmlns:xlink="http://www.w3.org/1999/xlink" x="0px" y="0px" viewBox="0 0 1117.6 188.4"
	 style="enable-background:new 0 0 1117.6 188.4;" xml:space="preserve">
<style type="text/css">
	.st0{fill:#FF5F00;}
	.st1{fill:#EB001B;}
	.st2{fill:#F79E1B;}
</style>
<rect x="109.8" y="21.7" class="st0" width="81.4" height="146.3"/>
<path class="st1" d="M115,94.8c0-28.5,13.1-55.5,35.5-73.2C110.1-10.1,51.7-3.1,19.9,37.3C-11.9,77.7-4.9,136.2,35.5,168
	c33.7,26.5,81.3,26.5,115,0C128.1,150.3,115,123.4,115,94.8z"/>
<path class="st2" d="M301.1,94.8c0,51.4-41.7,93-93,93c-20.9,0-41.1-7-57.5-19.9c40.4-31.8,47.4-90.3,15.6-130.7
	c-4.6-5.8-9.8-11.1-15.6-15.6c40.4-31.8,98.9-24.7,130.6,15.7C294.1,53.7,301.1,74,301.1,94.8z"/>
<path class="st2" d="M292.2,152.5v-3h1.2v-0.6h-3.1v0.6h1.2v3H292.2z M298.2,152.5v-3.6h-0.9l-1.1,2.5l-1.1-2.5h-0.9v3.6h0.7v-2.7
	l1,2.3h0.7l1-2.4v2.7H298.2z"/>
<polygon points="395.9,188.4 392.4,188.4 392.4,157 392.4,94.2 392.4,31.4 392.4,0 395.9,0 395.9,62.8 395.9,125.6 "/>
<path d="M491.2,152.5h-9.7v-111h9.7V152.5z M561.8,41.5c8.5-0.1,16.9,1.2,25,3.9c7,2.3,13.4,6.1,18.9,11.1c5.2,4.9,9.3,10.8,12,17.5
	c5.6,14.8,5.6,31.2,0,46.1c-2.7,6.6-6.7,12.6-12,17.5c-5.4,5-11.9,8.7-18.9,11.1c-8,2.7-16.5,4-25,3.9h-40.5v-111H561.8z
	 M530.9,50.7v92.6h30.8c7.3,0.1,14.5-1,21.4-3.3c5.8-2,11.1-5.1,15.6-9.3c4.3-4.1,7.5-9.1,9.6-14.6c4.3-12.4,4.3-25.8,0-38.2
	c-2.1-5.5-5.3-10.5-9.6-14.6c-4.5-4.2-9.8-7.4-15.6-9.3c-6.9-2.3-14.1-3.4-21.4-3.2L530.9,50.7z M734.1,40.2c4.6,0,9.3,0.5,13.8,1.6
	c4.3,1,8.5,2.5,12.5,4.6c3.8,1.9,7.4,4.3,10.5,7.2c3.1,2.8,5.8,6,8,9.5l-8.1,5.4c-1.9-2.9-4.2-5.5-6.8-7.8c-2.6-2.3-5.5-4.3-8.6-5.9
	c-3.2-1.7-6.6-2.9-10.1-3.8c-3.7-0.9-7.4-1.3-11.2-1.3c-6.3-0.1-12.6,1.1-18.4,3.4c-5.5,2.2-10.6,5.5-14.8,9.7
	c-4.3,4.3-7.6,9.4-9.9,15c-4.8,12.4-4.8,26.2,0,38.7c2.3,5.6,5.6,10.7,9.9,15c4.2,4.2,9.3,7.5,14.8,9.7c5.9,2.3,12.1,3.5,18.4,3.4
	c3.8,0,7.5-0.4,11.2-1.3c3.5-0.8,6.9-2.1,10.1-3.7c3.1-1.6,6-3.6,8.6-5.9c2.6-2.3,4.9-5,6.8-7.9l7.9,5.8c-2.3,3.5-5.1,6.6-8.2,9.4
	c-3.2,2.8-6.7,5.1-10.5,7.1c-3.9,2-8.1,3.5-12.3,4.5c-12.1,2.7-24.7,1.8-36.2-2.7c-6.7-2.7-12.9-6.6-18-11.7
	c-5.1-5.1-9.2-11.2-11.9-17.9c-5.8-14.7-5.8-31.1,0-45.9c2.7-6.7,6.8-12.8,11.9-18c5.2-5.1,11.3-9,18-11.7
	C718.8,41.6,726.4,40.2,734.1,40.2L734.1,40.2z M808.7,90.8c1.4-2.4,3.2-4.5,5.2-6.3c1.9-1.8,4.1-3.2,6.5-4.4c2.3-1.1,4.8-2,7.3-2.5
	c2.5-0.6,5.1-0.8,7.6-0.8c4.3-0.1,8.7,0.7,12.8,2.1c3.7,1.3,7.1,3.3,9.9,6c2.8,2.6,5,5.9,6.4,9.5c1.6,4,2.3,8.2,2.3,12.5v45.7h-9
	v-43c0-3.4-0.5-6.9-1.6-10.1c-1-2.9-2.6-5.5-4.7-7.6c-2.1-2.1-4.7-3.8-7.5-4.8c-3.3-1.2-6.7-1.7-10.1-1.7c-3.3,0-6.7,0.6-9.8,1.8
	c-3,1.1-5.7,2.9-7.9,5.1c-2.3,2.2-4.1,4.9-5.3,7.8c-1.3,3.2-2,6.6-1.9,10v42.5h-9V38.3h9L808.7,90.8z M920.4,76.7
	c4.8,0,9.5,0.9,13.8,2.8c4.2,1.8,7.9,4.5,11,7.8c3.2,3.5,5.7,7.6,7.3,12c1.8,4.9,2.8,10.1,2.8,15.3c0,0.7,0,1.3,0,1.9
	c0,0.6-0.1,1.2-0.1,1.8h-62.5c0.2,4,1.2,7.9,2.9,11.6c1.5,3.3,3.7,6.2,6.3,8.6c2.6,2.4,5.6,4.2,8.9,5.4c3.4,1.2,7.1,1.8,10.7,1.8
	c4.8,0.1,9.6-0.9,14-2.9c4.1-1.9,7.9-4.5,11.2-7.8l4.8,6.2c-2.2,2.2-4.6,4.2-7.3,5.9c-2.4,1.5-4.9,2.8-7.5,3.8
	c-2.5,0.9-5.1,1.6-7.8,2c-2.7,0.4-5.3,0.6-8,0.6c-5.2,0.1-10.3-0.9-15.1-2.8c-4.5-1.8-8.5-4.5-11.9-7.9c-3.4-3.5-6-7.6-7.8-12.1
	c-1.9-5-2.8-10.3-2.8-15.6c-0.1-5.3,0.9-10.6,2.8-15.5c1.8-4.5,4.4-8.7,7.8-12.2c3.3-3.4,7.3-6.1,11.7-8
	C910.4,77.6,915.4,76.7,920.4,76.7L920.4,76.7z M920.2,84.7c-3.6,0-7.1,0.6-10.4,1.9c-3.1,1.3-5.9,3.1-8.3,5.4
	c-2.4,2.4-4.4,5.1-5.8,8.2c-1.5,3.3-2.5,6.8-2.9,10.5h53.3c-0.3-3.7-1.2-7.2-2.6-10.6c-1.3-3.1-3.2-5.8-5.6-8.2
	C933.3,87.2,926.9,84.6,920.2,84.7L920.2,84.7z M1007.3,76.7c5.3-0.1,10.5,1,15.4,3c4.6,1.9,8.8,4.9,12.1,8.6l-5.9,6.1
	c-2.8-2.8-6.1-5.1-9.8-6.8c-3.8-1.7-7.9-2.5-12.1-2.4c-3.9,0-7.8,0.7-11.4,2.3c-3.4,1.5-6.6,3.6-9.2,6.3c-2.6,2.7-4.7,6-6.1,9.5
	c-2.9,7.7-2.9,16.3,0,24c2.7,7.1,8.2,12.8,15.2,15.7c3.6,1.5,7.5,2.3,11.4,2.3c4.2,0,8.4-0.8,12.2-2.5c3.7-1.6,7-3.9,9.9-6.7
	l5.6,6.2c-3.4,3.7-7.5,6.7-12.1,8.6c-9.9,3.9-20.9,4-30.8,0c-9.2-3.7-16.4-11-20-20.3c-3.8-9.8-3.8-20.7,0-30.6
	c3.6-9.2,10.8-16.6,20-20.3C996.8,77.6,1002.1,76.6,1007.3,76.7L1007.3,76.7z M1062,109.4h12.1l31.4-31.5h11.4l-35.5,35.2l36.1,39.4
	h-11.5l-31.9-35H1062v35h-9V38.3h9V109.4z"/>
</svg>
